<mxfile host="65bd71144e">
    <diagram id="PELtmlMhmaSryt0HEWnR" name="Page-1">
        <mxGraphModel dx="1356" dy="776" grid="1" gridSize="10" guides="0" tooltips="1" connect="0" arrows="0" fold="1" page="1" pageScale="1" pageWidth="1000" pageHeight="700" math="0" shadow="0">
            <root>
                <mxCell id="0"/>
                <mxCell id="1" parent="0"/>
            </root>
        </mxGraphModel>
    </diagram>
</mxfile>